<svg xmlns="http://www.w3.org/2000/svg" x="0px" y="0px" width="100" height="100" viewBox="0 0 100 100">
<path fill="#fb7369" d="m89.56,25.38h0c-.16-3.99-3.45-7.15-7.44-7.15h-17.77c-3.41,0-6.57,1.8-8.32,4.73l-1.32,2.21H21.54c-4.15,0-7.54,3.32-7.54,7.43,0,11.08.64,22.16,1.92,33.19.52,4.47,4.37,7.82,8.91,7.83l52.13.12c.22,1.52.44,3.05.69,4.58.81,4.94,7.92,4.89,8.73-.05,2.67-16.36,3.72-35.75,3.18-52.89Z"></path><path fill="#fec933" d="m77.65,78.31c-2.17-13.28-3.25-26.66-3.3-40.04-.01-2.92-2.38-5.27-5.29-5.27H16.02c-4.16,0-7.55,3.37-7.54,7.53.01,10.87.63,22.68,1.86,33.5.52,4.51,4.37,7.9,8.91,7.91l61.11.06h1.81c-.84,0-4.06-.88-4.52-3.69Z"></path><path fill="#4a254b" d="m43,70c2.57,0,4.68-1.94,4.97-4.43.03-.3-.18-.57-.49-.57-1.72,0-7.23,0-8.96,0-.3,0-.52.27-.49.57.28,2.49,2.4,4.43,4.97,4.43Z"></path><circle cx="30" cy="58" r="6" fill="#fff"></circle><circle cx="30" cy="58" r="2.75" fill="#4a254b"></circle><circle cx="56" cy="58" r="6" fill="#fff"></circle><circle cx="56" cy="58" r="2.75" fill="#4a254b"></circle>
</svg>